<svg xmlns="http://www.w3.org/2000/svg" viewBox="0 0 56 60" preserveAspectRatio='xMinYMin'><path fill="#000" fill-rule="evenodd" d="M28.9971 32c0 1.103.897 2 2 2s2-.897 2-2-.897-2-2-2-2 .897-2 2m0-9c0-1.103-.897-2-2-2s-2 .897-2 2 .897 2 2 2 2-.897 2-2m-4 13c-.552 0-1 .449-1 1 0 .551.448 1 1 1s1-.449 1-1c0-.551-.448-1-1-1m0-2c1.654 0 3 1.346 3 3s-1.346 3-3 3-3-1.346-3-3 1.346-3 3-3m30.655 24.206c-.612 1.157-1.91 1.794-3.655 1.794h-48c-2.341 0-3.287-1.14-3.642-1.82-.677-1.295-.378-3.027.821-4.751l17.989-26.984s.832-1.336.832-3.445V9c0-.552.447-1 1-1 .553 0 1 .448 1 1v14c0 2.735-1.115 4.474-1.163 4.547L9.7031 44.243c3.208.45 11.048 1.288 17.052-.213 8.148-2.036 16.148-.084 16.484 0 .536.134.862.676.728 1.212-.134.535-.68.859-1.212.728-.077-.018-7.864-1.911-15.516 0-2.774.694-5.861.925-8.739.925-4.529 0-8.542-.571-10.024-.81l-5.647 8.47c-.759 1.091-1.018 2.094-.701 2.699.339.649 1.316.746 1.869.746h48c.954 0 1.643-.266 1.887-.729.309-.585.043-1.598-.713-2.708l-18.006-27.008c-.048-.072-1.168-1.784-1.168-4.555V5c0-.552.447-1 1-1h1V2h-16v2h11c.553 0 1 .448 1 1s-.447 1-1 1h-11c-1.103 0-2-.897-2-2V2c0-1.103.897-2 2-2h16c1.103 0 2 .897 2 2v2c0 1.103-.897 2-2 2v17c0 2.137.823 3.433.832 3.445l18 27c1.211 1.777 1.505 3.471.823 4.761"/></svg>
