<svg xmlns="http://www.w3.org/2000/svg" viewBox="0 0 32 32"><g fill="#333" fill-rule="evenodd" clip-rule="evenodd"><path d="M29.98 6.819c-.096-1.57-1.387-2.816-2.98-2.816h-3V3.001c0-1.657-1.344-3-3-3H11c-1.657 0-3 1.343-3 3v1.001H5c-1.595 0-2.885 1.246-2.981 2.816H2v2.183c0 1.104.896 2 2 2v17c0 2.209 1.791 4 4 4h16c2.209 0 4-1.791 4-4v-17c1.104 0 2-.896 2-2V6.819h-.02zM10 3.002c0-.553.447-1 1-1h10c.553 0 1 .447 1 1v1H10v-1zm16 25c0 1.102-.898 2-2 2H8c-1.103 0-2-.898-2-2v-17h20v17zm2-20.001v1H4V7.002c0-.553.447-1 1-1h22c.553 0 1 .447 1 1v.999z"/><path d="M9 28.006h2c.553 0 1-.447 1-1v-13c0-.553-.447-1-1-1H9c-.553 0-1 .447-1 1v13c0 .553.447 1 1 1zm0-14.001h2v13H9v-13zm6 14.001h2c.553 0 1-.447 1-1v-13c0-.553-.447-1-1-1h-2c-.553 0-1 .447-1 1v13c0 .553.447 1 1 1zm0-14.001h2v13h-2v-13zm6 14.001h2c.553 0 1-.447 1-1v-13c0-.553-.447-1-1-1h-2c-.553 0-1 .447-1 1v13c0 .553.447 1 1 1zm0-14.001h2v13h-2v-13z"/></g></svg>
