<svg xmlns="http://www.w3.org/2000/svg" viewBox="0 0 48 48" preserveAspectRatio='xMinYMin'><path fill-rule="evenodd" d="M41 46c0 .553-.447 1-1 1H12c-2.762 0-5-2.238-5-5V6c0-2.761 2.238-5 5-5h26c.414 0 .77.252.922.611.05.119.078.251.078.389v7h1c.278 0 .529.115.711.298.178.181.289.428.289.702v36zM9 42c0 1.657 1.344 3 3 3h3V11h-3c-1.131 0-2.162-.39-3-1.022V42zM37 9V3H12c-1.656 0-3 1.343-3 3s1.344 3 3 3h25zm2 2H17v34h22V11zM12 7c-.553 0-1-.448-1-1s.447-1 1-1h22c.553 0 1 .448 1 1s-.447 1-1 1H12z" clip-rule="evenodd"/></svg>
