<svg xmlns="http://www.w3.org/2000/svg" viewbox="0 0 832 1024" preserveAspectRatio='xMinYMin'><path d="M416 464.5c-61.562 0-111.5 49.938-111.5 111.5S354.438 687.5 416 687.5 527.5 637.562 527.5 576c0-8.5-1.125-16.75-3-24.688C606.125 456.375 732.5 308.344 800 224c23.125-28.875-2.312-56.188-32-32-85.188 69.375-232.312 194.688-326.906 275.594-8.063-1.875-16.469-3.094-25.094-3.094zm31.875-208.625c0-17.656-14.344-32-32-32s-32 14.344-32 32 14.344 32 32 32 32-14.344 32-32zm192 256c0 17.656 14.375 32 32 32s32-14.344 32-32-14.375-32-32-32-32 14.344-32 32zm-352-256c-17.656 0-32 14.344-32 32s14.344 32 32 32 32-14.344 32-32-14.344-32-32-32zm-64 128c0-17.656-14.344-32-32-32s-32 14.344-32 32 14.344 32 32 32 32-14.344 32-32zm-96 128c0 17.656 14.344 32 32 32s32-14.344 32-32-14.344-32-32-32-32 14.344-32 32zm448-224c0-17.656-14.375-32-32-32s-32 14.344-32 32 14.375 32 32 32 32-14.344 32-32zm217 48.813l-68.75 89.938C731.625 453.812 736 482.375 736 512c0 176.75-143.312 320-320 320S96 688.75 96 512c0-176.688 143.312-320 320-320 65.875 0 127 19.969 177.875 54.094l79.25-60.625C602.375 129.594 513.25 96 416 96 186.25 96 0 282.25 0 512s186.25 416 416 416 416-186.25 416-416c0-62.719-14.25-122-39.125-175.312z"/></svg>
