<svg xmlns="http://www.w3.org/2000/svg" viewBox="0 0 32 32"><path fill="#333" d="M29.363 4.637c-3.514-3.516-9.213-3.516-12.727 0L2.046 19.054c-2.729 2.729-2.729 7.171 0 9.9s7.17 2.729 9.898 0l14.59-14.418c1.953-1.953 1.953-5.118 0-7.071-1.953-1.952-5.119-1.952-7.07 0L8.496 18.433c-.391.392-.391 1.023 0 1.415.391.391 1.023.391 1.414 0L20.879 8.879c1.17-1.169 3.072-1.169 4.242 0 1.17 1.17 1.17 3.073 0 4.243l-14.59 14.417c-1.953 1.953-5.117 1.953-7.07 0-1.953-1.952-1.953-5.118 0-7.07L17.908 6.192c2.734-2.734 7.168-2.734 9.898 0 2.736 2.735 2.736 7.165.002 9.899L16.982 26.918c-.393.392-.393 1.023 0 1.414.391.392 1.023.392 1.414 0l10.967-10.968c3.516-3.514 3.516-9.213 0-12.727z"/></svg>
